<svg width="1024" height="1024" viewBox="0 0 1024 1024" fill="none" xmlns="http://www.w3.org/2000/svg">
<path d="M455.111 306.195C617.811 306.195 750.931 433.442 750.931 588.964C750.931 744.492 617.811 871.739 455.111 871.739C292.409 871.739 159.289 744.492 159.289 588.964C159.289 433.442 292.409 306.195 455.111 306.195ZM455.111 153.934C203.663 153.934 0 348.61 0 588.964C0 829.318 203.663 1024 455.111 1024C706.56 1024 910.226 829.318 910.226 588.964C910.226 348.61 706.56 153.934 455.111 153.934Z" fill="#232832"/>
<path d="M932.974 219.19C983.245 219.19 1024 180.236 1024 132.184C1024 84.1309 983.245 45.1768 932.974 45.1768C882.704 45.1768 841.956 84.1309 841.956 132.184C841.956 180.236 882.704 219.19 932.974 219.19Z" fill="#4347FE"/>
<path fill-rule="evenodd" clip-rule="evenodd" d="M434.872 403.156L76.4716 746.833L35.0303 707.341L393.43 363.669L434.872 403.156Z" fill="#4347FE"/>
<path fill-rule="evenodd" clip-rule="evenodd" d="M340.404 604.394L134.465 801.243L93.0895 761.691L299.028 564.842L340.404 604.394Z" fill="#4347FE"/>
<path fill-rule="evenodd" clip-rule="evenodd" d="M781.863 456.48L649.878 582.64L608.5 543.088L740.486 416.93L781.863 456.48Z" fill="#4347FE"/>
<path fill-rule="evenodd" clip-rule="evenodd" d="M596.456 737.024L372.314 952.365L330.833 912.918L554.977 697.577L596.456 737.024Z" fill="#4347FE"/>
<path fill-rule="evenodd" clip-rule="evenodd" d="M752.278 353.161L423.461 667.475L382.085 627.923L710.9 313.61L752.278 353.161Z" fill="#4347FE"/>
<path fill-rule="evenodd" clip-rule="evenodd" d="M392.42 698.225L354.873 733.026L314.139 692.871L351.686 658.07L392.42 698.225Z" fill="#4347FE"/>
<path d="M455.111 261.019C617.811 261.019 750.931 388.266 750.931 543.788C750.931 699.316 617.811 826.563 455.111 826.563C292.409 826.563 159.289 699.316 159.289 543.788C159.289 388.266 292.409 261.019 455.111 261.019ZM455.111 108.758C203.663 108.758 0 303.435 0 543.788C0 784.142 203.663 978.823 455.111 978.823C706.56 978.823 910.226 784.142 910.226 543.788C910.226 303.435 706.56 108.758 455.111 108.758Z" fill="#1C2028"/>
<path d="M932.974 174.013C983.245 174.013 1024 135.059 1024 87.0069C1024 38.9542 983.245 0 932.974 0C882.704 0 841.956 38.9542 841.956 87.0069C841.956 135.059 882.704 174.013 932.974 174.013Z" fill="#1C2028"/>
<path fill-rule="evenodd" clip-rule="evenodd" d="M434.872 357.979L76.4716 701.656L35.0303 662.165L393.43 318.492L434.872 357.979Z" fill="#1C2028"/>
<path fill-rule="evenodd" clip-rule="evenodd" d="M340.404 559.217L134.465 756.066L93.0895 716.514L299.028 519.665L340.404 559.217Z" fill="#1C2028"/>
<path fill-rule="evenodd" clip-rule="evenodd" d="M781.863 411.304L649.878 537.464L608.5 497.912L740.486 371.754L781.863 411.304Z" fill="#1C2028"/>
<path fill-rule="evenodd" clip-rule="evenodd" d="M596.456 691.847L372.314 907.188L330.833 867.741L554.977 652.4L596.456 691.847Z" fill="#1C2028"/>
<path fill-rule="evenodd" clip-rule="evenodd" d="M752.278 307.984L423.461 622.298L382.085 582.746L710.9 268.434L752.278 307.984Z" fill="#1C2028"/>
<path fill-rule="evenodd" clip-rule="evenodd" d="M392.42 653.048L354.873 687.849L314.139 647.695L351.686 612.894L392.42 653.048Z" fill="#1C2028"/>
</svg>
